<?xml version="1.0" encoding="iso-8859-1"?>
<!-- Generator: Adobe Illustrator 18.0.0, SVG Export Plug-In . SVG Version: 6.00 Build 0)  -->
<!DOCTYPE svg PUBLIC "-//W3C//DTD SVG 1.1//EN" "http://www.w3.org/Graphics/SVG/1.1/DTD/svg11.dtd">
<svg version="1.1" id="Capa_1" xmlns="http://www.w3.org/2000/svg" xmlns:xlink="http://www.w3.org/1999/xlink" x="0px" y="0px"
	 viewBox="0 0 495.339 495.339" style="enable-background:new 0 0 495.339 495.339;" xml:space="preserve">
<path fill="gray" d="M196.299,405.261l277.148-277.124c6.738-6.742,6.738-17.668,0-24.408L374.805,5.056C371.563,1.824,367.176,0,362.598,0
	c-4.584,0-8.951,1.824-12.193,5.056L73.256,282.211c-1.871,1.863-3.271,4.121-4.129,6.62L17.76,438.832
	c-2.129,6.233-0.498,13.136,4.145,17.789c3.258,3.273,7.649,5.023,12.129,5.04c0.549,1.041,1.369,2.016,2.58,2.856
	c8.873,6.191,18.16,10.989,27.627,15.192c44.113,19.555,93.689,18.91,141.607,8.209c36.273-8.121,70.656-22.531,106.008-33.773
	c48.125-15.313,100.545-22.667,150.541-28.538c11.065-1.306,9.227-18.468-1.84-17.169c-68.012,8-134.779,21.635-199.277,44.717
	c-54.258,19.394-116.512,34.867-172.09,18.005c-11.867-3.588-23.416-8.716-34.514-15.538l135.025-46.232
	C192.17,408.527,194.461,407.123,196.299,405.261z M187.508,365.255l-18.32-18.307L418.559,97.656l18.262,18.274L187.508,365.255z
	 M362.598,41.676l18.303,18.304l-249.34,249.35l-18.307-18.314L362.598,41.676z M91.723,406.445l-19.66-19.652l22.498-65.674
	l62.82,62.836L91.723,406.445z"/>
<g>
</g>
<g>
</g>
<g>
</g>
<g>
</g>
<g>
</g>
<g>
</g>
<g>
</g>
<g>
</g>
<g>
</g>
<g>
</g>
<g>
</g>
<g>
</g>
<g>
</g>
<g>
</g>
<g>
</g>
</svg>
