<?xml version="1.0" encoding="utf-8"?>
<!-- Svg Vector Icons : http://www.onlinewebfonts.com/icon -->
<!DOCTYPE svg PUBLIC "-//W3C//DTD SVG 1.1//EN" "http://www.w3.org/Graphics/SVG/1.1/DTD/svg11.dtd">
<svg version="1.1" xmlns="http://www.w3.org/2000/svg" xmlns:xlink="http://www.w3.org/1999/xlink" x="0px" y="0px" viewBox="0 0 1000 1000" enable-background="new 0 0 1000 1000" xml:space="preserve">
<metadata> Svg Vector Icons : http://www.onlinewebfonts.com/icon </metadata>
<g><g transform="translate(0.000000,511.000000) scale(0.100000,-0.100000)"><path d="M4336.3,3772.3c-985.3-134.2-1832.6-789.8-2202.6-1708c-78.6-195.5-159.1-506.1-178.3-692l-15.3-130.3l-199.4-76.7c-381.5-143.8-642.2-310.6-931.6-601.9C437.2,191.4,224.4-201.6,126.6-701.9c-42.2-212.8-32.6-688.2,17.3-906.7c105.4-456.2,322.1-843.5,663.3-1182.8c304.8-302.9,649.8-511.8,1052.4-640.3c364.2-115,463.9-126.5,1282.5-126.5c718.9,0,741.9,1.9,793.6,40.3c101.6,74.8,132.3,136.1,132.3,256.9c0,120.8-30.7,182.1-132.3,256.9c-49.8,38.3-84.3,40.2-793.6,51.7c-734.2,11.5-743.8,11.5-924,63.3c-663.3,189.8-1104.2,513.7-1334.2,979.6c-111.2,226.2-161,427.5-174.4,699.7c-26.8,596.2,255,1157.9,780.2,1550.8c253,189.8,527.2,304.8,860.7,360.4l187.9,32.6l13.4,178.3c63.3,908.7,508,1667.8,1188.5,2030.1c327.8,174.4,567.4,228.1,989.2,226.2c325.9-1.9,502.2-32.6,776.4-139.9C6027,2825.3,6466,2348,6648.1,1784.4l42.2-132.3l224.3-11.5c402.6-21.1,726.5-105.4,1081.2-287.5C8754.8,965.8,9291.6,166.4,9291.6-577.3c0-479.2-241.5-1062-661.3-1600.7c-157.2-201.3-500.3-529.1-690.1-661.3l-153.4-105.4l-531-9.6c-498.4-9.6-532.9-11.5-582.8-49.8c-101.6-74.8-132.3-136.1-132.3-256.9c0-120.8,30.7-182.1,132.3-256.9c49.8-38.3,82.4-40.3,596.2-46c588.5-5.8,600-3.8,718.9,99.7c26.8,24.9,95.8,72.8,153.3,107.3c341.2,210.9,793.6,613.4,1040.9,925.9c383.4,485,623,991.1,695.9,1474.2c47.9,310.5,15.3,739.9-82.4,1088.8c-316.3,1131-1334.2,1991.7-2492.1,2104.8l-130.3,13.4l-105.4,176.4c-414.1,692-1083.1,1167.4-1863.3,1318.9C5014.9,3783.8,4524.1,3799.1,4336.3,3772.3z"/><path d="M5179.7,1006.1C5149,990.7,4685.1,540.3,4150.3,5.4C3097.9-1050.8,3132.4-1008.7,3166.9-1185c17.3-93.9,132.3-208.9,226.2-226.2c172.5-32.6,159.1-44.1,908.6,705.4l695.8,692l3.8-1679.3c5.7-1663.9,5.7-1681.2,46-1732.9c74.8-101.6,136.1-132.3,256.9-132.3s182.1,30.7,256.9,132.3c40.3,51.7,40.3,69,46,1732.9L5611-13.7l695.8-692c749.5-749.5,736.1-738,908.6-705.4c93.9,17.3,208.9,132.3,226.2,226.2c34.5,176.4,69,134.2-983.4,1190.4c-555.9,555.9-998.7,985.3-1033.3,1000.7C5348.4,1038.7,5254.5,1038.7,5179.7,1006.1z"/></g></g>
</svg>